<svg width="129" height="148" viewBox="0 0 129 148" fill="none" xmlns="http://www.w3.org/2000/svg">
<ellipse cx="64.0927" cy="54.3768" rx="55.1498" ry="54.3768" fill="#0F0E0F"/>
<path d="M18.898 115.882C18.898 114.458 17.97 113.738 16.386 113.738H13.698L13.65 118.01H16.402C17.89 118.01 18.898 117.386 18.898 115.882ZM18.834 123.626L17.778 121.818L16.066 119.178H13.666L13.714 123.61C13.714 123.69 13.65 123.754 13.57 123.754H12.322C12.242 123.754 12.178 123.69 12.178 123.61L12.242 117.994L12.178 112.698C12.178 112.618 12.242 112.554 12.322 112.554H16.242C18.802 112.554 20.354 113.658 20.354 115.85C20.354 117.642 19.314 118.714 17.634 119.05L20.562 123.626C20.594 123.69 20.562 123.754 20.498 123.754H19.058C18.978 123.754 18.882 123.706 18.834 123.626ZM31.9727 118.074C32.0047 121.898 30.2607 123.962 27.0287 123.962C24.0207 123.962 21.8927 121.674 21.8927 118.154C21.8927 114.586 24.0047 112.346 26.9967 112.346C29.4927 112.346 31.1727 113.642 31.7007 115.978C31.7167 116.058 31.6687 116.122 31.5887 116.122H30.3567C30.2767 116.122 30.1967 116.058 30.1807 115.978C29.7967 114.394 28.6607 113.562 26.9967 113.562C24.8367 113.562 23.4287 115.29 23.4287 118.17C23.4287 120.986 24.8687 122.746 27.0447 122.746C29.2047 122.746 30.3887 121.338 30.4047 119.114H27.0447C26.9647 119.114 26.9007 119.05 26.9007 118.97V118.074C26.9007 117.994 26.9647 117.93 27.0447 117.93H31.8287C31.9087 117.93 31.9727 117.994 31.9727 118.074ZM42.4161 120.426C42.4161 122.81 40.5121 123.754 38.2721 123.754H34.0001C33.9201 123.754 33.8561 123.69 33.8561 123.61L33.9201 117.994L33.8561 112.698C33.8561 112.618 33.9201 112.554 34.0001 112.554H38.2561C40.5121 112.554 42.0801 113.466 42.0801 115.242C42.0801 116.666 41.3441 117.434 40.0001 117.754C41.6801 118.154 42.4001 119.13 42.4161 120.426ZM35.3921 113.69L35.3281 117.274H38.2401C39.6801 117.274 40.5921 116.762 40.5921 115.514C40.5921 114.266 39.6321 113.69 38.2401 113.69H35.3921ZM35.3281 118.41L35.3921 122.602H38.2401C39.8081 122.602 40.9121 122.042 40.9121 120.442C40.9121 118.97 39.6481 118.41 38.2401 118.41H35.3281ZM50.3089 125.994H49.4289C49.3489 125.994 49.2529 125.946 49.2209 125.866C48.1809 123.77 47.5569 121.61 47.5569 118.954C47.5569 116.314 48.2129 114.09 49.2049 112.202C49.2369 112.122 49.3329 112.074 49.4129 112.074H50.2929C50.3569 112.074 50.4049 112.138 50.3729 112.202C49.4609 114.25 48.9009 116.49 48.9009 118.954C48.9009 121.418 49.4449 123.722 50.3889 125.866C50.4209 125.93 50.3729 125.994 50.3089 125.994ZM55.0997 123.754H53.8677C53.7877 123.754 53.7237 123.69 53.7237 123.61L53.7557 118.618L53.7397 114.314C53.1157 114.89 52.3157 115.29 51.4837 115.578C51.4037 115.61 51.3397 115.562 51.3397 115.482V114.522C51.3397 114.442 51.3877 114.362 51.4677 114.33C52.4117 113.978 53.2117 113.37 53.7397 112.666C53.7877 112.602 53.8837 112.554 53.9637 112.554H55.0997C55.1797 112.554 55.2437 112.618 55.2437 112.698L55.2117 118.314L55.2437 123.61C55.2437 123.69 55.1797 123.754 55.0997 123.754ZM65.1497 119.69C65.1497 122.314 63.5657 123.962 61.2297 123.962C58.9737 123.962 57.7897 122.714 57.5817 120.81C57.5657 120.73 57.6297 120.666 57.7097 120.666H58.9097C58.9897 120.666 59.0537 120.73 59.0537 120.81C59.1497 122.026 59.8857 122.842 61.2297 122.842C62.6697 122.842 63.5817 121.706 63.5817 119.786C63.5817 117.914 62.7657 116.906 61.3257 116.906C60.1737 116.906 59.4537 117.498 59.1817 118.506C59.1657 118.586 59.0857 118.65 59.0057 118.65H57.9657C57.8857 118.65 57.8217 118.586 57.8377 118.506L58.2057 112.698C58.2217 112.618 58.2857 112.554 58.3657 112.554H64.2697C64.3497 112.554 64.4137 112.618 64.4137 112.698V113.626C64.4137 113.706 64.3497 113.77 64.2697 113.77H59.5017L59.2617 116.826C59.8377 116.106 60.6377 115.754 61.7097 115.754C63.6777 115.754 65.1497 117.258 65.1497 119.69ZM67.0775 125.322H66.5335C66.4695 125.322 66.4055 125.258 66.4215 125.178L66.8215 123.722V122.218C66.8215 122.138 66.8855 122.074 66.9655 122.074H68.1335C68.2135 122.074 68.2775 122.138 68.2775 122.218V123.562C68.2775 123.642 68.2455 123.754 68.1975 123.834L67.3015 125.194C67.2535 125.274 67.1575 125.322 67.0775 125.322ZM76.9247 123.754H75.6927C75.6127 123.754 75.5487 123.69 75.5487 123.61L75.5807 118.618L75.5647 114.314C74.9407 114.89 74.1407 115.29 73.3087 115.578C73.2287 115.61 73.1647 115.562 73.1647 115.482V114.522C73.1647 114.442 73.2127 114.362 73.2927 114.33C74.2367 113.978 75.0367 113.37 75.5647 112.666C75.6127 112.602 75.7087 112.554 75.7887 112.554H76.9247C77.0047 112.554 77.0687 112.618 77.0687 112.698L77.0367 118.314L77.0687 123.61C77.0687 123.69 77.0047 123.754 76.9247 123.754ZM87.1027 119.69V120.618C87.1027 120.698 87.0387 120.762 86.9587 120.762H85.9027V123.61C85.9027 123.69 85.8387 123.754 85.7587 123.754H84.5747C84.4947 123.754 84.4307 123.69 84.4307 123.61V120.762H79.3747C79.2947 120.762 79.2307 120.698 79.2307 120.618V119.578C79.2307 119.498 79.2627 119.386 79.3107 119.322L83.7587 112.666C83.8067 112.602 83.9027 112.554 83.9827 112.554H85.7587C85.8387 112.554 85.9027 112.618 85.9027 112.698V119.546H86.9587C87.0387 119.546 87.1027 119.61 87.1027 119.69ZM84.4307 119.546V115.61L84.4787 113.658L80.5587 119.546H84.4307ZM89.0119 125.322H88.4679C88.4039 125.322 88.3399 125.258 88.3559 125.178L88.7559 123.722V122.218C88.7559 122.138 88.8199 122.074 88.8999 122.074H90.0679C90.1479 122.074 90.2119 122.138 90.2119 122.218V123.562C90.2119 123.642 90.1799 123.754 90.1319 123.834L89.2359 125.194C89.1879 125.274 89.0919 125.322 89.0119 125.322ZM98.8591 123.754H97.6271C97.5471 123.754 97.4831 123.69 97.4831 123.61L97.5151 118.618L97.4991 114.314C96.8751 114.89 96.0751 115.29 95.2431 115.578C95.1631 115.61 95.0991 115.562 95.0991 115.482V114.522C95.0991 114.442 95.1471 114.362 95.2271 114.33C96.1711 113.978 96.9711 113.37 97.4991 112.666C97.5471 112.602 97.6431 112.554 97.7231 112.554H98.8591C98.9391 112.554 99.0031 112.618 99.0031 112.698L98.9711 118.314L99.0031 123.61C99.0031 123.69 98.9391 123.754 98.8591 123.754ZM109.037 119.69V120.618C109.037 120.698 108.973 120.762 108.893 120.762H107.837V123.61C107.837 123.69 107.773 123.754 107.693 123.754H106.509C106.429 123.754 106.365 123.69 106.365 123.61V120.762H101.309C101.229 120.762 101.165 120.698 101.165 120.618V119.578C101.165 119.498 101.197 119.386 101.245 119.322L105.693 112.666C105.741 112.602 105.837 112.554 105.917 112.554H107.693C107.773 112.554 107.837 112.618 107.837 112.698V119.546H108.893C108.973 119.546 109.037 119.61 109.037 119.69ZM106.365 119.546V115.61L106.413 113.658L102.493 119.546H106.365ZM110.898 125.994H110.018C109.954 125.994 109.906 125.93 109.938 125.866C110.882 123.722 111.426 121.418 111.426 118.954C111.426 116.49 110.866 114.25 109.954 112.202C109.922 112.138 109.97 112.074 110.034 112.074H110.914C110.994 112.074 111.09 112.122 111.122 112.202C112.114 114.09 112.77 116.314 112.77 118.954C112.77 121.61 112.146 123.77 111.106 125.866C111.074 125.946 110.978 125.994 110.898 125.994ZM34.7158 139.042H36.9558L37.4998 135.202H35.2598L34.7158 139.042ZM37.6438 142.754H36.5718C36.4918 142.754 36.4438 142.69 36.4438 142.61L36.7958 140.194H34.5558L34.2038 142.61C34.2038 142.69 34.1238 142.754 34.0438 142.754H32.9718C32.8918 142.754 32.8438 142.69 32.8438 142.61L33.1958 140.194H30.9398C30.8598 140.194 30.8118 140.13 30.8118 140.05L30.9718 139.186C30.9718 139.106 31.0518 139.042 31.1318 139.042H33.3558L33.8998 135.202H31.6758C31.5958 135.202 31.5478 135.138 31.5478 135.058L31.6758 134.194C31.6758 134.114 31.7558 134.05 31.8358 134.05H34.0758L34.4118 131.698C34.4118 131.618 34.4918 131.554 34.5718 131.554H35.6438C35.7238 131.554 35.7718 131.618 35.7718 131.698L35.4358 134.05H37.6758L38.0118 131.698C38.0118 131.618 38.0918 131.554 38.1718 131.554H39.2438C39.3238 131.554 39.3718 131.618 39.3718 131.698L39.0358 134.05H41.2598C41.3398 134.05 41.3878 134.114 41.3878 134.194L41.2598 135.058C41.2598 135.138 41.1798 135.202 41.0998 135.202H38.8598L38.3158 139.042H40.5558C40.6358 139.042 40.6838 139.106 40.6838 139.186L40.5398 140.05C40.5398 140.13 40.4598 140.194 40.3798 140.194H38.1558L37.8038 142.61C37.8038 142.69 37.7238 142.754 37.6438 142.754ZM50.7782 137.17C50.7782 140.85 49.1622 142.962 46.7302 142.962C44.3142 142.962 42.7142 140.834 42.7142 137.17C42.7142 133.41 44.2982 131.346 46.7462 131.346C49.1782 131.346 50.7782 133.394 50.7782 137.17ZM44.2502 137.17C44.2502 140.178 45.1942 141.714 46.7462 141.714C48.2982 141.714 49.2262 140.194 49.2262 137.17C49.2262 134.146 48.2982 132.594 46.7302 132.594C45.1622 132.594 44.2502 134.13 44.2502 137.17ZM54.0997 142.754H52.8517C52.7717 142.754 52.7077 142.69 52.7077 142.61L52.7717 137.154L52.7077 131.698C52.7077 131.618 52.7717 131.554 52.8517 131.554H59.4277C59.5077 131.554 59.5717 131.618 59.5717 131.698V132.61C59.5717 132.69 59.5077 132.754 59.4277 132.754H54.2437L54.1797 136.674H59.1557C59.2357 136.674 59.2997 136.738 59.2997 136.818V137.73C59.2997 137.81 59.2357 137.874 59.1557 137.874H54.1797L54.2437 142.61C54.2437 142.69 54.1797 142.754 54.0997 142.754ZM69.1594 137.17C69.1594 140.85 67.5434 142.962 65.1114 142.962C62.6954 142.962 61.0954 140.834 61.0954 137.17C61.0954 133.41 62.6794 131.346 65.1274 131.346C67.5594 131.346 69.1594 133.394 69.1594 137.17ZM62.6314 137.17C62.6314 140.178 63.5754 141.714 65.1274 141.714C66.6794 141.714 67.6074 140.194 67.6074 137.17C67.6074 134.146 66.6794 132.594 65.1114 132.594C63.5434 132.594 62.6314 134.13 62.6314 137.17ZM78.1289 142.754H71.2329C71.1529 142.754 71.0889 142.69 71.0889 142.61L71.1529 136.978L71.0889 131.698C71.0889 131.618 71.1529 131.554 71.2329 131.554H78.0009C78.0809 131.554 78.1449 131.618 78.1449 131.698V132.61C78.1449 132.69 78.0809 132.754 78.0009 132.754H72.6249L72.5609 136.178H77.6169C77.6969 136.178 77.7609 136.242 77.7609 136.322V137.234C77.7609 137.314 77.6969 137.378 77.6169 137.378H72.5609L72.6249 141.554H78.1289C78.2089 141.554 78.2729 141.618 78.2729 141.698V142.61C78.2729 142.69 78.2089 142.754 78.1289 142.754ZM87.9625 137.17C87.9625 140.85 86.3465 142.962 83.9145 142.962C81.4985 142.962 79.8985 140.834 79.8985 137.17C79.8985 133.41 81.4825 131.346 83.9305 131.346C86.3625 131.346 87.9625 133.394 87.9625 137.17ZM81.4345 137.17C81.4345 140.178 82.3785 141.714 83.9305 141.714C85.4825 141.714 86.4105 140.194 86.4105 137.17C86.4105 134.146 85.4825 132.594 83.9145 132.594C82.3465 132.594 81.4345 134.13 81.4345 137.17ZM96.932 142.754H90.036C89.956 142.754 89.892 142.69 89.892 142.61L89.956 136.978L89.892 131.698C89.892 131.618 89.956 131.554 90.036 131.554H96.804C96.884 131.554 96.948 131.618 96.948 131.698V132.61C96.948 132.69 96.884 132.754 96.804 132.754H91.428L91.364 136.178H96.42C96.5 136.178 96.564 136.242 96.564 136.322V137.234C96.564 137.314 96.5 137.378 96.42 137.378H91.364L91.428 141.554H96.932C97.012 141.554 97.076 141.618 97.076 141.698V142.61C97.076 142.69 97.012 142.754 96.932 142.754Z" fill="#0F0E0F"/>
</svg>
