<svg width="129" height="148" viewBox="0 0 129 148" fill="none" xmlns="http://www.w3.org/2000/svg">
<ellipse cx="64.1738" cy="54.3768" rx="55.1498" ry="54.3768" fill="#3D464D"/>
<path d="M17.3149 115.882C17.3149 114.458 16.3869 113.738 14.8029 113.738H12.1149L12.0669 118.01H14.8189C16.3069 118.01 17.3149 117.386 17.3149 115.882ZM17.2509 123.626L16.1949 121.818L14.4829 119.178H12.0829L12.1309 123.61C12.1309 123.69 12.0669 123.754 11.9869 123.754H10.7389C10.6589 123.754 10.5949 123.69 10.5949 123.61L10.6589 117.994L10.5949 112.698C10.5949 112.618 10.6589 112.554 10.7389 112.554H14.6589C17.2189 112.554 18.7709 113.658 18.7709 115.85C18.7709 117.642 17.7309 118.714 16.0509 119.05L18.9789 123.626C19.0109 123.69 18.9789 123.754 18.9149 123.754H17.4749C17.3949 123.754 17.2989 123.706 17.2509 123.626ZM30.3897 118.074C30.4217 121.898 28.6777 123.962 25.4457 123.962C22.4377 123.962 20.3097 121.674 20.3097 118.154C20.3097 114.586 22.4217 112.346 25.4137 112.346C27.9097 112.346 29.5897 113.642 30.1177 115.978C30.1337 116.058 30.0857 116.122 30.0057 116.122H28.7737C28.6937 116.122 28.6137 116.058 28.5977 115.978C28.2137 114.394 27.0777 113.562 25.4137 113.562C23.2537 113.562 21.8457 115.29 21.8457 118.17C21.8457 120.986 23.2857 122.746 25.4617 122.746C27.6217 122.746 28.8057 121.338 28.8217 119.114H25.4617C25.3817 119.114 25.3177 119.05 25.3177 118.97V118.074C25.3177 117.994 25.3817 117.93 25.4617 117.93H30.2457C30.3257 117.93 30.3897 117.994 30.3897 118.074ZM40.8331 120.426C40.8331 122.81 38.9291 123.754 36.6891 123.754H32.4171C32.3371 123.754 32.2731 123.69 32.2731 123.61L32.3371 117.994L32.2731 112.698C32.2731 112.618 32.3371 112.554 32.4171 112.554H36.6731C38.9291 112.554 40.4971 113.466 40.4971 115.242C40.4971 116.666 39.7611 117.434 38.4171 117.754C40.0971 118.154 40.8171 119.13 40.8331 120.426ZM33.8091 113.69L33.7451 117.274H36.6571C38.0971 117.274 39.0091 116.762 39.0091 115.514C39.0091 114.266 38.0491 113.69 36.6571 113.69H33.8091ZM33.7451 118.41L33.8091 122.602H36.6571C38.2251 122.602 39.3291 122.042 39.3291 120.442C39.3291 118.97 38.0651 118.41 36.6571 118.41H33.7451ZM48.7258 125.994H47.8458C47.7658 125.994 47.6698 125.946 47.6378 125.866C46.5978 123.77 45.9738 121.61 45.9738 118.954C45.9738 116.314 46.6298 114.09 47.6218 112.202C47.6538 112.122 47.7498 112.074 47.8298 112.074H48.7098C48.7738 112.074 48.8218 112.138 48.7898 112.202C47.8778 114.25 47.3178 116.49 47.3178 118.954C47.3178 121.418 47.8618 123.722 48.8058 125.866C48.8378 125.93 48.7898 125.994 48.7258 125.994ZM57.5364 119.882C57.5364 122.186 55.9524 123.962 53.7764 123.962C51.2964 123.962 49.7924 122.09 49.7924 118.218C49.7924 114.474 51.3924 112.346 53.9204 112.346C55.8244 112.346 56.9124 113.306 57.1364 115.082C57.1524 115.162 57.0884 115.226 57.0084 115.226H55.8244C55.7444 115.226 55.6804 115.162 55.6644 115.082C55.5364 114.154 54.9444 113.482 53.8244 113.482C52.2564 113.482 51.3444 115.066 51.3284 117.626C51.8564 116.746 52.8004 116.266 54.0644 116.266C56.1444 116.266 57.5364 117.642 57.5364 119.882ZM51.4404 119.978C51.4404 121.578 52.2724 122.778 53.7124 122.778C55.1524 122.778 56.0004 121.754 56.0004 120.058C55.9844 118.458 55.2324 117.418 53.7764 117.418C52.3204 117.418 51.4404 118.378 51.4404 119.978ZM62.5511 123.754H61.3191C61.2391 123.754 61.1751 123.69 61.1751 123.61L61.2071 118.618L61.1911 114.314C60.5671 114.89 59.7671 115.29 58.9351 115.578C58.8551 115.61 58.7911 115.562 58.7911 115.482V114.522C58.7911 114.442 58.8391 114.362 58.9191 114.33C59.8631 113.978 60.6631 113.37 61.1911 112.666C61.2391 112.602 61.3351 112.554 61.4151 112.554H62.5511C62.6311 112.554 62.6951 112.618 62.6951 112.698L62.6631 118.314L62.6951 123.61C62.6951 123.69 62.6311 123.754 62.5511 123.754ZM65.3851 125.322H64.8411C64.7771 125.322 64.7131 125.258 64.7291 125.178L65.1291 123.722V122.218C65.1291 122.138 65.1931 122.074 65.2731 122.074H66.4411C66.5211 122.074 66.5851 122.138 66.5851 122.218V123.562C66.5851 123.642 66.5531 123.754 66.5051 123.834L65.6091 125.194C65.5611 125.274 65.4651 125.322 65.3851 125.322ZM78.0803 113.898C76.6083 116.826 75.4083 120.042 74.8643 123.61C74.8643 123.69 74.7843 123.754 74.7043 123.754H73.4083C73.3283 123.754 73.2803 123.69 73.2963 123.61C73.9043 120.09 74.9763 116.618 76.5443 113.77H71.5363C71.4563 113.77 71.3923 113.706 71.3923 113.626V112.698C71.3923 112.618 71.4563 112.554 71.5363 112.554H78.0003C78.0803 112.554 78.1443 112.618 78.1443 112.698V113.626C78.1443 113.706 78.1123 113.818 78.0803 113.898ZM87.2467 118.17C87.2467 121.85 85.6307 123.962 83.1987 123.962C80.7827 123.962 79.1827 121.834 79.1827 118.17C79.1827 114.41 80.7667 112.346 83.2147 112.346C85.6467 112.346 87.2467 114.394 87.2467 118.17ZM80.7187 118.17C80.7187 121.178 81.6627 122.714 83.2147 122.714C84.7667 122.714 85.6947 121.194 85.6947 118.17C85.6947 115.146 84.7667 113.594 83.1987 113.594C81.6307 113.594 80.7187 115.13 80.7187 118.17ZM88.8819 125.322H88.3379C88.2739 125.322 88.2099 125.258 88.2259 125.178L88.6259 123.722V122.218C88.6259 122.138 88.6899 122.074 88.7699 122.074H89.9379C90.0179 122.074 90.0819 122.138 90.0819 122.218V123.562C90.0819 123.642 90.0499 123.754 90.0019 123.834L89.1059 125.194C89.0579 125.274 88.9619 125.322 88.8819 125.322ZM101.577 113.898C100.105 116.826 98.9052 120.042 98.3612 123.61C98.3612 123.69 98.2812 123.754 98.2012 123.754H96.9052C96.8252 123.754 96.7772 123.69 96.7932 123.61C97.4012 120.09 98.4732 116.618 100.041 113.77H95.0332C94.9532 113.77 94.8892 113.706 94.8892 113.626V112.698C94.8892 112.618 94.9532 112.554 95.0332 112.554H101.497C101.577 112.554 101.641 112.618 101.641 112.698V113.626C101.641 113.706 101.609 113.818 101.577 113.898ZM109.971 113.898C108.499 116.826 107.299 120.042 106.755 123.61C106.755 123.69 106.675 123.754 106.595 123.754H105.299C105.219 123.754 105.171 123.69 105.187 123.61C105.795 120.09 106.867 116.618 108.435 113.77H103.427C103.347 113.77 103.283 113.706 103.283 113.626V112.698C103.283 112.618 103.347 112.554 103.427 112.554H109.891C109.971 112.554 110.035 112.618 110.035 112.698V113.626C110.035 113.706 110.003 113.818 109.971 113.898ZM112.643 125.994H111.763C111.699 125.994 111.651 125.93 111.683 125.866C112.627 123.722 113.171 121.418 113.171 118.954C113.171 116.49 112.611 114.25 111.699 112.202C111.667 112.138 111.715 112.074 111.779 112.074H112.659C112.739 112.074 112.835 112.122 112.867 112.202C113.859 114.09 114.515 116.314 114.515 118.954C114.515 121.61 113.891 123.77 112.851 125.866C112.819 125.946 112.723 125.994 112.643 125.994ZM32.5843 139.042H34.8243L35.3683 135.202H33.1283L32.5843 139.042ZM35.5123 142.754H34.4403C34.3603 142.754 34.3123 142.69 34.3123 142.61L34.6643 140.194H32.4243L32.0723 142.61C32.0723 142.69 31.9923 142.754 31.9123 142.754H30.8403C30.7603 142.754 30.7123 142.69 30.7123 142.61L31.0643 140.194H28.8083C28.7283 140.194 28.6803 140.13 28.6803 140.05L28.8403 139.186C28.8403 139.106 28.9203 139.042 29.0003 139.042H31.2243L31.7683 135.202H29.5443C29.4643 135.202 29.4163 135.138 29.4163 135.058L29.5443 134.194C29.5443 134.114 29.6243 134.05 29.7043 134.05H31.9443L32.2803 131.698C32.2803 131.618 32.3603 131.554 32.4403 131.554H33.5123C33.5923 131.554 33.6403 131.618 33.6403 131.698L33.3043 134.05H35.5443L35.8803 131.698C35.8803 131.618 35.9603 131.554 36.0403 131.554H37.1123C37.1923 131.554 37.2403 131.618 37.2403 131.698L36.9043 134.05H39.1283C39.2083 134.05 39.2563 134.114 39.2563 134.194L39.1283 135.058C39.1283 135.138 39.0483 135.202 38.9683 135.202H36.7283L36.1843 139.042H38.4243C38.5043 139.042 38.5523 139.106 38.5523 139.186L38.4083 140.05C38.4083 140.13 38.3283 140.194 38.2483 140.194H36.0243L35.6723 142.61C35.6723 142.69 35.5923 142.754 35.5123 142.754ZM48.1507 139.426C48.1507 141.554 46.5347 142.914 44.2307 142.914C41.9427 142.914 40.6627 141.698 40.5187 139.378C40.5027 139.298 40.5667 139.234 40.6467 139.234H41.7987C41.8787 139.234 41.9427 139.298 41.9427 139.378C42.0227 140.914 42.7587 141.81 44.2627 141.794C45.8147 141.794 46.6147 140.866 46.6307 139.458C46.6467 138.034 45.7507 137.314 43.9587 137.314H43.4467C43.3667 137.314 43.3027 137.25 43.3027 137.17V136.386C43.3027 136.306 43.3667 136.242 43.4467 136.242H43.9587C45.6067 136.242 46.4067 135.522 46.4067 134.402C46.4067 133.218 45.5427 132.514 44.3747 132.514C42.9507 132.514 42.1987 133.266 42.0867 134.77C42.0867 134.85 42.0227 134.914 41.9427 134.914H40.8067C40.7267 134.914 40.6627 134.85 40.6627 134.77C40.7907 132.562 42.2467 131.394 44.4387 131.394C46.4067 131.394 47.8787 132.482 47.8787 134.258C47.8787 135.634 47.0307 136.37 45.9427 136.706C47.3187 137.01 48.1507 138.002 48.1507 139.426ZM53.8198 142.754H50.2518C50.1718 142.754 50.1078 142.69 50.1078 142.61L50.1718 137.01L50.1078 131.698C50.1078 131.618 50.1718 131.554 50.2518 131.554H53.7878C57.0038 131.554 59.4518 133.49 59.4518 137.154C59.4518 140.978 56.8278 142.754 53.8198 142.754ZM51.5958 136.978C51.5958 138.018 51.6438 141.538 51.6438 141.554H53.9478C55.9318 141.554 57.9158 140.258 57.9158 137.154C57.9158 134.194 56.1078 132.754 53.8838 132.754H51.6438C51.6438 132.77 51.5958 135.97 51.5958 136.978ZM68.8166 138.69V139.618C68.8166 139.698 68.7526 139.762 68.6726 139.762H67.6166V142.61C67.6166 142.69 67.5526 142.754 67.4726 142.754H66.2886C66.2086 142.754 66.1446 142.69 66.1446 142.61V139.762H61.0886C61.0086 139.762 60.9446 139.698 60.9446 139.618V138.578C60.9446 138.498 60.9766 138.386 61.0246 138.322L65.4726 131.666C65.5206 131.602 65.6166 131.554 65.6966 131.554H67.4726C67.5526 131.554 67.6166 131.618 67.6166 131.698V138.546H68.6726C68.7526 138.546 68.8166 138.61 68.8166 138.69ZM66.1446 138.546V134.61L66.1926 132.658L62.2726 138.546H66.1446ZM78.1177 138.882C78.1177 141.186 76.5337 142.962 74.3577 142.962C71.8777 142.962 70.3737 141.09 70.3737 137.218C70.3737 133.474 71.9737 131.346 74.5017 131.346C76.4057 131.346 77.4937 132.306 77.7177 134.082C77.7337 134.162 77.6697 134.226 77.5897 134.226H76.4057C76.3257 134.226 76.2617 134.162 76.2457 134.082C76.1177 133.154 75.5257 132.482 74.4057 132.482C72.8377 132.482 71.9257 134.066 71.9097 136.626C72.4377 135.746 73.3817 135.266 74.6457 135.266C76.7257 135.266 78.1177 136.642 78.1177 138.882ZM72.0217 138.978C72.0217 140.578 72.8537 141.778 74.2937 141.778C75.7337 141.778 76.5817 140.754 76.5817 139.058C76.5657 137.458 75.8137 136.418 74.3577 136.418C72.9017 136.418 72.0217 137.378 72.0217 138.978ZM87.5416 138.69V139.618C87.5416 139.698 87.4776 139.762 87.3976 139.762H86.3416V142.61C86.3416 142.69 86.2776 142.754 86.1976 142.754H85.0136C84.9336 142.754 84.8696 142.69 84.8696 142.61V139.762H79.8136C79.7336 139.762 79.6696 139.698 79.6696 139.618V138.578C79.6696 138.498 79.7016 138.386 79.7496 138.322L84.1976 131.666C84.2456 131.602 84.3416 131.554 84.4216 131.554H86.1976C86.2776 131.554 86.3416 131.618 86.3416 131.698V138.546H87.3976C87.4776 138.546 87.5416 138.61 87.5416 138.69ZM84.8696 138.546V134.61L84.9176 132.658L80.9976 138.546H84.8696ZM93.0667 142.754H89.4987C89.4187 142.754 89.3547 142.69 89.3547 142.61L89.4187 137.01L89.3547 131.698C89.3547 131.618 89.4187 131.554 89.4987 131.554H93.0347C96.2507 131.554 98.6987 133.49 98.6987 137.154C98.6987 140.978 96.0747 142.754 93.0667 142.754ZM90.8427 136.978C90.8427 138.018 90.8907 141.538 90.8907 141.554H93.1947C95.1787 141.554 97.1627 140.258 97.1627 137.154C97.1627 134.194 95.3547 132.754 93.1307 132.754H90.8907C90.8907 132.77 90.8427 135.97 90.8427 136.978Z" fill="#0F0E0F"/>
</svg>
