<svg width="147" height="146" viewBox="0 0 147 146" fill="none" xmlns="http://www.w3.org/2000/svg">
<path d="M127.526 54.3768C127.526 84.1255 103.065 108.254 72.8765 108.254C42.6876 108.254 18.2267 84.1255 18.2267 54.3768C18.2267 24.6281 42.6876 0.5 72.8765 0.5C103.065 0.5 127.526 24.6281 127.526 54.3768Z" fill="#F6E6ED" stroke="black"/>
<path d="M10.9898 115.795C10.9898 114.371 10.0618 113.651 8.47775 113.651H5.78975L5.74175 117.923H8.49375C9.98175 117.923 10.9898 117.299 10.9898 115.795ZM10.9258 123.539L9.86975 121.731L8.15775 119.091H5.75775L5.80575 123.523C5.80575 123.603 5.74175 123.667 5.66175 123.667H4.41375C4.33375 123.667 4.26975 123.603 4.26975 123.523L4.33375 117.907L4.26975 112.611C4.26975 112.531 4.33375 112.467 4.41375 112.467H8.33375C10.8938 112.467 12.4458 113.571 12.4458 115.763C12.4458 117.555 11.4058 118.627 9.72575 118.963L12.6538 123.539C12.6858 123.603 12.6538 123.667 12.5898 123.667H11.1498C11.0698 123.667 10.9738 123.619 10.9258 123.539ZM24.0645 117.987C24.0965 121.811 22.3525 123.875 19.1205 123.875C16.1125 123.875 13.9845 121.587 13.9845 118.067C13.9845 114.499 16.0965 112.259 19.0885 112.259C21.5845 112.259 23.2645 113.555 23.7925 115.891C23.8085 115.971 23.7605 116.035 23.6805 116.035H22.4485C22.3685 116.035 22.2885 115.971 22.2725 115.891C21.8885 114.307 20.7525 113.475 19.0885 113.475C16.9285 113.475 15.5205 115.203 15.5205 118.083C15.5205 120.899 16.9605 122.659 19.1365 122.659C21.2965 122.659 22.4805 121.251 22.4965 119.027H19.1365C19.0565 119.027 18.9925 118.963 18.9925 118.883V117.987C18.9925 117.907 19.0565 117.843 19.1365 117.843H23.9205C24.0005 117.843 24.0645 117.907 24.0645 117.987ZM34.5079 120.339C34.5079 122.723 32.6039 123.667 30.3639 123.667H26.0919C26.0119 123.667 25.9479 123.603 25.9479 123.523L26.0119 117.907L25.9479 112.611C25.9479 112.531 26.0119 112.467 26.0919 112.467H30.3479C32.6039 112.467 34.1719 113.379 34.1719 115.155C34.1719 116.579 33.4359 117.347 32.0919 117.667C33.7719 118.067 34.4919 119.043 34.5079 120.339ZM27.4839 113.603L27.4199 117.187H30.3319C31.7719 117.187 32.6839 116.675 32.6839 115.427C32.6839 114.179 31.7239 113.603 30.3319 113.603H27.4839ZM27.4199 118.323L27.4839 122.515H30.3319C31.8999 122.515 33.0039 121.955 33.0039 120.355C33.0039 118.883 31.7399 118.323 30.3319 118.323H27.4199ZM42.4006 125.907H41.5206C41.4406 125.907 41.3446 125.859 41.3126 125.779C40.2726 123.683 39.6486 121.523 39.6486 118.867C39.6486 116.227 40.3046 114.003 41.2966 112.115C41.3286 112.035 41.4246 111.987 41.5046 111.987H42.3846C42.4486 111.987 42.4966 112.051 42.4646 112.115C41.5526 114.163 40.9926 116.403 40.9926 118.867C40.9926 121.331 41.5366 123.635 42.4806 125.779C42.5126 125.843 42.4646 125.907 42.4006 125.907ZM50.8015 123.667H44.0175C43.9375 123.667 43.8735 123.603 43.8735 123.523V122.195C43.8735 117.859 49.6335 118.403 49.6335 115.571C49.6495 114.339 48.9455 113.443 47.4735 113.459C46.0815 113.459 45.2815 114.387 45.2015 116.131C45.2015 116.211 45.1375 116.275 45.0575 116.275H43.9855C43.9055 116.275 43.8415 116.211 43.8415 116.131C43.8895 113.667 45.1535 112.291 47.4895 112.275C49.7615 112.275 50.9935 113.523 51.0255 115.539C51.0255 119.539 45.2655 119.059 45.2655 121.971V122.451H50.8015C50.8815 122.451 50.9455 122.515 50.9455 122.595V123.523C50.9455 123.603 50.8815 123.667 50.8015 123.667ZM59.307 119.603V120.531C59.307 120.611 59.243 120.675 59.163 120.675H58.107V123.523C58.107 123.603 58.043 123.667 57.963 123.667H56.779C56.699 123.667 56.635 123.603 56.635 123.523V120.675H51.579C51.499 120.675 51.435 120.611 51.435 120.531V119.491C51.435 119.411 51.467 119.299 51.515 119.235L55.963 112.579C56.011 112.515 56.107 112.467 56.187 112.467H57.963C58.043 112.467 58.107 112.531 58.107 112.611V119.459H59.163C59.243 119.459 59.307 119.523 59.307 119.603ZM56.635 119.459V115.523L56.683 113.571L52.763 119.459H56.635ZM68.6081 119.795C68.6081 122.099 67.0241 123.875 64.8481 123.875C62.3681 123.875 60.8641 122.003 60.8641 118.131C60.8641 114.387 62.4641 112.259 64.9921 112.259C66.8961 112.259 67.9841 113.219 68.2081 114.995C68.2241 115.075 68.1601 115.139 68.0801 115.139H66.8961C66.8161 115.139 66.7521 115.075 66.7361 114.995C66.6081 114.067 66.0161 113.395 64.8961 113.395C63.3281 113.395 62.4161 114.979 62.4001 117.539C62.9281 116.659 63.8721 116.179 65.1361 116.179C67.2161 116.179 68.6081 117.555 68.6081 119.795ZM62.5121 119.891C62.5121 121.491 63.3441 122.691 64.7841 122.691C66.2241 122.691 67.0721 121.667 67.0721 119.971C67.0561 118.371 66.3041 117.331 64.8481 117.331C63.3921 117.331 62.5121 118.291 62.5121 119.891ZM70.4849 125.235H69.9409C69.8769 125.235 69.8129 125.171 69.8289 125.091L70.2289 123.635V122.131C70.2289 122.051 70.2929 121.987 70.3729 121.987H71.5409C71.6209 121.987 71.6849 122.051 71.6849 122.131V123.475C71.6849 123.555 71.6529 123.667 71.6049 123.747L70.7089 125.107C70.6609 125.187 70.5649 125.235 70.4849 125.235ZM83.6921 123.667H76.9081C76.8281 123.667 76.7641 123.603 76.7641 123.523V122.195C76.7641 117.859 82.5241 118.403 82.5241 115.571C82.5401 114.339 81.8361 113.443 80.3641 113.459C78.9721 113.459 78.1721 114.387 78.0921 116.131C78.0921 116.211 78.0281 116.275 77.9481 116.275H76.8761C76.7961 116.275 76.7321 116.211 76.7321 116.131C76.7801 113.667 78.0441 112.291 80.3801 112.275C82.6521 112.275 83.8841 113.523 83.9161 115.539C83.9161 119.539 78.1561 119.059 78.1561 121.971V122.451H83.6921C83.7721 122.451 83.8361 122.515 83.8361 122.595V123.523C83.8361 123.603 83.7721 123.667 83.6921 123.667ZM93.0224 120.339C93.0224 122.467 91.4064 123.827 89.1024 123.827C86.8144 123.827 85.5344 122.611 85.3904 120.291C85.3744 120.211 85.4384 120.147 85.5184 120.147H86.6704C86.7504 120.147 86.8144 120.211 86.8144 120.291C86.8944 121.827 87.6304 122.723 89.1344 122.707C90.6864 122.707 91.4864 121.779 91.5024 120.371C91.5184 118.947 90.6224 118.227 88.8304 118.227H88.3184C88.2384 118.227 88.1744 118.163 88.1744 118.083V117.299C88.1744 117.219 88.2384 117.155 88.3184 117.155H88.8304C90.4784 117.155 91.2784 116.435 91.2784 115.315C91.2784 114.131 90.4144 113.427 89.2464 113.427C87.8224 113.427 87.0704 114.179 86.9584 115.683C86.9584 115.763 86.8944 115.827 86.8144 115.827H85.6784C85.5984 115.827 85.5344 115.763 85.5344 115.683C85.6624 113.475 87.1184 112.307 89.3104 112.307C91.2784 112.307 92.7504 113.395 92.7504 115.171C92.7504 116.547 91.9024 117.283 90.8144 117.619C92.1904 117.923 93.0224 118.915 93.0224 120.339ZM102.771 118.083C102.771 121.763 101.155 123.875 98.7235 123.875C96.3075 123.875 94.7075 121.747 94.7075 118.083C94.7075 114.323 96.2915 112.259 98.7395 112.259C101.171 112.259 102.771 114.307 102.771 118.083ZM96.2435 118.083C96.2435 121.091 97.1875 122.627 98.7395 122.627C100.291 122.627 101.219 121.107 101.219 118.083C101.219 115.059 100.291 113.507 98.7235 113.507C97.1555 113.507 96.2435 115.043 96.2435 118.083ZM104.407 125.235H103.863C103.799 125.235 103.735 125.171 103.751 125.091L104.151 123.635V122.131C104.151 122.051 104.215 121.987 104.295 121.987H105.463C105.543 121.987 105.607 122.051 105.607 122.131V123.475C105.607 123.555 105.575 123.667 105.527 123.747L104.631 125.107C104.583 125.187 104.487 125.235 104.407 125.235ZM117.614 123.667H110.83C110.75 123.667 110.686 123.603 110.686 123.523V122.195C110.686 117.859 116.446 118.403 116.446 115.571C116.462 114.339 115.758 113.443 114.286 113.459C112.894 113.459 112.094 114.387 112.014 116.131C112.014 116.211 111.95 116.275 111.87 116.275H110.798C110.718 116.275 110.654 116.211 110.654 116.131C110.702 113.667 111.966 112.291 114.302 112.275C116.574 112.275 117.806 113.523 117.838 115.539C117.838 119.539 112.078 119.059 112.078 121.971V122.451H117.614C117.694 122.451 117.758 122.515 117.758 122.595V123.523C117.758 123.603 117.694 123.667 117.614 123.667ZM126.944 120.339C126.944 122.467 125.328 123.827 123.024 123.827C120.736 123.827 119.456 122.611 119.312 120.291C119.296 120.211 119.36 120.147 119.44 120.147H120.592C120.672 120.147 120.736 120.211 120.736 120.291C120.816 121.827 121.552 122.723 123.056 122.707C124.608 122.707 125.408 121.779 125.424 120.371C125.44 118.947 124.544 118.227 122.752 118.227H122.24C122.16 118.227 122.096 118.163 122.096 118.083V117.299C122.096 117.219 122.16 117.155 122.24 117.155H122.752C124.4 117.155 125.2 116.435 125.2 115.315C125.2 114.131 124.336 113.427 123.168 113.427C121.744 113.427 120.992 114.179 120.88 115.683C120.88 115.763 120.816 115.827 120.736 115.827H119.6C119.52 115.827 119.456 115.763 119.456 115.683C119.584 113.475 121.04 112.307 123.232 112.307C125.2 112.307 126.672 113.395 126.672 115.171C126.672 116.547 125.824 117.283 124.736 117.619C126.112 117.923 126.944 118.915 126.944 120.339ZM134.686 113.811C133.214 116.739 132.014 119.955 131.47 123.523C131.47 123.603 131.39 123.667 131.31 123.667H130.014C129.934 123.667 129.886 123.603 129.902 123.523C130.51 120.003 131.582 116.531 133.15 113.683H128.142C128.062 113.683 127.998 113.619 127.998 113.539V112.611C127.998 112.531 128.062 112.467 128.142 112.467H134.606C134.686 112.467 134.75 112.531 134.75 112.611V113.539C134.75 113.619 134.718 113.731 134.686 113.811ZM137.358 125.907H136.478C136.414 125.907 136.366 125.843 136.398 125.779C137.342 123.635 137.886 121.331 137.886 118.867C137.886 116.403 137.326 114.163 136.414 112.115C136.382 112.051 136.43 111.987 136.494 111.987H137.374C137.454 111.987 137.55 112.035 137.582 112.115C138.574 114.003 139.23 116.227 139.23 118.867C139.23 121.523 138.606 123.683 137.566 125.779C137.534 125.859 137.438 125.907 137.358 125.907ZM43.5388 138.955H45.7788L46.3228 135.115H44.0828L43.5388 138.955ZM46.4668 142.667H45.3948C45.3148 142.667 45.2668 142.603 45.2668 142.523L45.6188 140.107H43.3788L43.0268 142.523C43.0268 142.603 42.9468 142.667 42.8668 142.667H41.7948C41.7148 142.667 41.6668 142.603 41.6668 142.523L42.0188 140.107H39.7628C39.6828 140.107 39.6348 140.043 39.6348 139.963L39.7948 139.099C39.7948 139.019 39.8748 138.955 39.9548 138.955H42.1788L42.7228 135.115H40.4988C40.4188 135.115 40.3708 135.051 40.3708 134.971L40.4988 134.107C40.4988 134.027 40.5788 133.963 40.6588 133.963H42.8988L43.2348 131.611C43.2348 131.531 43.3148 131.467 43.3948 131.467H44.4668C44.5468 131.467 44.5948 131.531 44.5948 131.611L44.2588 133.963H46.4988L46.8348 131.611C46.8348 131.531 46.9148 131.467 46.9948 131.467H48.0668C48.1468 131.467 48.1948 131.531 48.1948 131.611L47.8588 133.963H50.0828C50.1628 133.963 50.2108 134.027 50.2108 134.107L50.0828 134.971C50.0828 135.051 50.0028 135.115 49.9228 135.115H47.6828L47.1388 138.955H49.3788C49.4588 138.955 49.5068 139.019 49.5068 139.099L49.3628 139.963C49.3628 140.043 49.2828 140.107 49.2028 140.107H46.9788L46.6268 142.523C46.6268 142.603 46.5468 142.667 46.4668 142.667ZM53.1852 142.667H51.9372C51.8572 142.667 51.7932 142.603 51.7932 142.523L51.8572 137.067L51.7932 131.611C51.7932 131.531 51.8572 131.467 51.9372 131.467H58.5132C58.5932 131.467 58.6572 131.531 58.6572 131.611V132.523C58.6572 132.603 58.5932 132.667 58.5132 132.667H53.3292L53.2652 136.587H58.2412C58.3212 136.587 58.3852 136.651 58.3852 136.731V137.643C58.3852 137.723 58.3212 137.787 58.2412 137.787H53.2652L53.3292 142.523C53.3292 142.603 53.2652 142.667 53.1852 142.667ZM67.9409 138.795C67.9409 141.099 66.3569 142.875 64.1809 142.875C61.7009 142.875 60.1969 141.003 60.1969 137.131C60.1969 133.387 61.7969 131.259 64.3249 131.259C66.2289 131.259 67.3169 132.219 67.5409 133.995C67.5569 134.075 67.4929 134.139 67.4129 134.139H66.2289C66.1489 134.139 66.0849 134.075 66.0689 133.995C65.9409 133.067 65.3489 132.395 64.2289 132.395C62.6609 132.395 61.7489 133.979 61.7329 136.539C62.2609 135.659 63.2049 135.179 64.4689 135.179C66.5489 135.179 67.9409 136.555 67.9409 138.795ZM61.8449 138.891C61.8449 140.491 62.6769 141.691 64.1169 141.691C65.5569 141.691 66.4049 140.667 66.4049 138.971C66.3889 137.371 65.6369 136.331 64.1809 136.331C62.7249 136.331 61.8449 137.291 61.8449 138.891ZM76.9019 142.667H70.0059C69.9259 142.667 69.8619 142.603 69.8619 142.523L69.9259 136.891L69.8619 131.611C69.8619 131.531 69.9259 131.467 70.0059 131.467H76.7739C76.8539 131.467 76.9179 131.531 76.9179 131.611V132.523C76.9179 132.603 76.8539 132.667 76.7739 132.667H71.3979L71.3339 136.091H76.3899C76.4699 136.091 76.5339 136.155 76.5339 136.235V137.147C76.5339 137.227 76.4699 137.291 76.3899 137.291H71.3339L71.3979 141.467H76.9019C76.9819 141.467 77.0459 141.531 77.0459 141.611V142.523C77.0459 142.603 76.9819 142.667 76.9019 142.667ZM86.4316 138.795C86.4316 141.099 84.8476 142.875 82.6716 142.875C80.1916 142.875 78.6876 141.003 78.6876 137.131C78.6876 133.387 80.2876 131.259 82.8156 131.259C84.7196 131.259 85.8076 132.219 86.0316 133.995C86.0476 134.075 85.9836 134.139 85.9036 134.139H84.7196C84.6396 134.139 84.5756 134.075 84.5596 133.995C84.4316 133.067 83.8396 132.395 82.7196 132.395C81.1516 132.395 80.2396 133.979 80.2236 136.539C80.7516 135.659 81.6956 135.179 82.9596 135.179C85.0396 135.179 86.4316 136.555 86.4316 138.795ZM80.3356 138.891C80.3356 140.491 81.1676 141.691 82.6076 141.691C84.0476 141.691 84.8956 140.667 84.8956 138.971C84.8796 137.371 84.1276 136.331 82.6716 136.331C81.2156 136.331 80.3356 137.291 80.3356 138.891ZM95.3926 142.667H88.4966C88.4166 142.667 88.3526 142.603 88.3526 142.523L88.4166 136.891L88.3526 131.611C88.3526 131.531 88.4166 131.467 88.4966 131.467H95.2646C95.3446 131.467 95.4086 131.531 95.4086 131.611V132.523C95.4086 132.603 95.3446 132.667 95.2646 132.667H89.8886L89.8246 136.091H94.8806C94.9606 136.091 95.0246 136.155 95.0246 136.235V137.147C95.0246 137.227 94.9606 137.291 94.8806 137.291H89.8246L89.8886 141.467H95.3926C95.4726 141.467 95.5366 141.531 95.5366 141.611V142.523C95.5366 142.603 95.4726 142.667 95.3926 142.667ZM101.146 142.667H97.5782C97.4982 142.667 97.4342 142.603 97.4342 142.523L97.4982 136.923L97.4342 131.611C97.4342 131.531 97.4982 131.467 97.5782 131.467H101.114C104.33 131.467 106.778 133.403 106.778 137.067C106.778 140.891 104.154 142.667 101.146 142.667ZM98.9222 136.891C98.9222 137.931 98.9702 141.451 98.9702 141.467H101.274C103.258 141.467 105.242 140.171 105.242 137.067C105.242 134.107 103.434 132.667 101.21 132.667H98.9702C98.9702 132.683 98.9222 135.883 98.9222 136.891Z" fill="#0F0E0F"/>
</svg>
