<svg width="143" height="148" viewBox="0 0 143 148" fill="none" xmlns="http://www.w3.org/2000/svg">
<ellipse cx="71.8903" cy="54.3768" rx="55.1498" ry="54.3768" fill="#FF007F"/>
<path d="M11.6984 115.882C11.6984 114.458 10.7704 113.738 9.18642 113.738H6.49842L6.45042 118.01H9.20242C10.6904 118.01 11.6984 117.386 11.6984 115.882ZM11.6344 123.626L10.5784 121.818L8.86642 119.178H6.46642L6.51442 123.61C6.51442 123.69 6.45042 123.754 6.37042 123.754H5.12242C5.04242 123.754 4.97842 123.69 4.97842 123.61L5.04242 117.994L4.97842 112.698C4.97842 112.618 5.04242 112.554 5.12242 112.554H9.04242C11.6024 112.554 13.1544 113.658 13.1544 115.85C13.1544 117.642 12.1144 118.714 10.4344 119.05L13.3624 123.626C13.3944 123.69 13.3624 123.754 13.2984 123.754H11.8584C11.7784 123.754 11.6824 123.706 11.6344 123.626ZM24.7732 118.074C24.8052 121.898 23.0612 123.962 19.8292 123.962C16.8212 123.962 14.6932 121.674 14.6932 118.154C14.6932 114.586 16.8052 112.346 19.7972 112.346C22.2932 112.346 23.9732 113.642 24.5012 115.978C24.5172 116.058 24.4692 116.122 24.3892 116.122H23.1572C23.0772 116.122 22.9972 116.058 22.9812 115.978C22.5972 114.394 21.4612 113.562 19.7972 113.562C17.6372 113.562 16.2292 115.29 16.2292 118.17C16.2292 120.986 17.6692 122.746 19.8452 122.746C22.0052 122.746 23.1892 121.338 23.2052 119.114H19.8452C19.7652 119.114 19.7012 119.05 19.7012 118.97V118.074C19.7012 117.994 19.7652 117.93 19.8452 117.93H24.6292C24.7092 117.93 24.7732 117.994 24.7732 118.074ZM35.2165 120.426C35.2165 122.81 33.3125 123.754 31.0725 123.754H26.8005C26.7205 123.754 26.6565 123.69 26.6565 123.61L26.7205 117.994L26.6565 112.698C26.6565 112.618 26.7205 112.554 26.8005 112.554H31.0565C33.3125 112.554 34.8805 113.466 34.8805 115.242C34.8805 116.666 34.1445 117.434 32.8005 117.754C34.4805 118.154 35.2005 119.13 35.2165 120.426ZM28.1925 113.69L28.1285 117.274H31.0405C32.4805 117.274 33.3925 116.762 33.3925 115.514C33.3925 114.266 32.4325 113.69 31.0405 113.69H28.1925ZM28.1285 118.41L28.1925 122.602H31.0405C32.6085 122.602 33.7125 122.042 33.7125 120.442C33.7125 118.97 32.4485 118.41 31.0405 118.41H28.1285ZM43.1093 125.994H42.2293C42.1493 125.994 42.0533 125.946 42.0213 125.866C40.9813 123.77 40.3573 121.61 40.3573 118.954C40.3573 116.314 41.0133 114.09 42.0053 112.202C42.0373 112.122 42.1333 112.074 42.2133 112.074H43.0933C43.1573 112.074 43.2053 112.138 43.1733 112.202C42.2613 114.25 41.7013 116.49 41.7013 118.954C41.7013 121.418 42.2453 123.722 43.1893 125.866C43.2213 125.93 43.1733 125.994 43.1093 125.994ZM51.5102 123.754H44.7262C44.6462 123.754 44.5822 123.69 44.5822 123.61V122.282C44.5822 117.946 50.3422 118.49 50.3422 115.658C50.3582 114.426 49.6542 113.53 48.1822 113.546C46.7902 113.546 45.9902 114.474 45.9102 116.218C45.9102 116.298 45.8462 116.362 45.7662 116.362H44.6942C44.6142 116.362 44.5502 116.298 44.5502 116.218C44.5982 113.754 45.8622 112.378 48.1982 112.362C50.4702 112.362 51.7022 113.61 51.7342 115.626C51.7342 119.626 45.9742 119.146 45.9742 122.058V122.538H51.5102C51.5902 122.538 51.6542 122.602 51.6542 122.682V123.61C51.6542 123.69 51.5902 123.754 51.5102 123.754ZM60.0157 119.69V120.618C60.0157 120.698 59.9517 120.762 59.8717 120.762H58.8157V123.61C58.8157 123.69 58.7517 123.754 58.6717 123.754H57.4877C57.4077 123.754 57.3437 123.69 57.3437 123.61V120.762H52.2877C52.2077 120.762 52.1437 120.698 52.1437 120.618V119.578C52.1437 119.498 52.1757 119.386 52.2237 119.322L56.6717 112.666C56.7197 112.602 56.8157 112.554 56.8957 112.554H58.6717C58.7517 112.554 58.8157 112.618 58.8157 112.698V119.546H59.8717C59.9517 119.546 60.0157 119.61 60.0157 119.69ZM57.3437 119.546V115.61L57.3917 113.658L53.4717 119.546H57.3437ZM67.5357 113.898C66.0637 116.826 64.8637 120.042 64.3197 123.61C64.3197 123.69 64.2397 123.754 64.1597 123.754H62.8637C62.7837 123.754 62.7357 123.69 62.7517 123.61C63.3597 120.09 64.4317 116.618 65.9997 113.77H60.9917C60.9117 113.77 60.8477 113.706 60.8477 113.626V112.698C60.8477 112.618 60.9117 112.554 60.9917 112.554H67.4557C67.5357 112.554 67.5997 112.618 67.5997 112.698V113.626C67.5997 113.706 67.5677 113.818 67.5357 113.898ZM68.4592 125.322H67.9152C67.8512 125.322 67.7872 125.258 67.8032 125.178L68.2032 123.722V122.218C68.2032 122.138 68.2672 122.074 68.3472 122.074H69.5152C69.5952 122.074 69.6592 122.138 69.6592 122.218V123.562C69.6592 123.642 69.6272 123.754 69.5792 123.834L68.6832 125.194C68.6352 125.274 68.5392 125.322 68.4592 125.322ZM78.3064 123.754H77.0744C76.9944 123.754 76.9304 123.69 76.9304 123.61L76.9624 118.618L76.9464 114.314C76.3224 114.89 75.5224 115.29 74.6904 115.578C74.6104 115.61 74.5464 115.562 74.5464 115.482V114.522C74.5464 114.442 74.5944 114.362 74.6744 114.33C75.6184 113.978 76.4184 113.37 76.9464 112.666C76.9944 112.602 77.0904 112.554 77.1704 112.554H78.3064C78.3864 112.554 78.4504 112.618 78.4504 112.698L78.4184 118.314L78.4504 123.61C78.4504 123.69 78.3864 123.754 78.3064 123.754ZM87.2044 113.898C85.7324 116.826 84.5324 120.042 83.9884 123.61C83.9884 123.69 83.9084 123.754 83.8284 123.754H82.5324C82.4524 123.754 82.4044 123.69 82.4204 123.61C83.0284 120.09 84.1004 116.618 85.6684 113.77H80.6604C80.5804 113.77 80.5164 113.706 80.5164 113.626V112.698C80.5164 112.618 80.5804 112.554 80.6604 112.554H87.1244C87.2044 112.554 87.2684 112.618 87.2684 112.698V113.626C87.2684 113.706 87.2364 113.818 87.2044 113.898ZM90.1549 116.25C90.1709 117.85 90.9229 118.874 92.3789 118.874C93.8349 118.874 94.7149 117.93 94.7149 116.314C94.7149 114.73 93.8829 113.53 92.4429 113.53C91.0029 113.53 90.1549 114.554 90.1549 116.25ZM96.3629 118.09C96.3629 121.834 94.7629 123.962 92.2349 123.962C90.3309 123.962 89.2429 123.002 89.0189 121.21C89.0029 121.13 89.0669 121.066 89.1469 121.066H90.3309C90.4109 121.066 90.4749 121.13 90.4909 121.21C90.6189 122.202 91.2269 122.81 92.3469 122.81C93.9309 122.81 94.8109 121.29 94.8269 118.698C94.3149 119.562 93.3549 120.042 92.0909 120.042C90.0109 120.042 88.6189 118.666 88.6189 116.426C88.6189 114.074 90.1229 112.346 92.3789 112.346C94.8429 112.346 96.3629 114.17 96.3629 118.09ZM98.0217 125.322H97.4777C97.4137 125.322 97.3497 125.258 97.3657 125.178L97.7657 123.722V122.218C97.7657 122.138 97.8297 122.074 97.9097 122.074H99.0777C99.1577 122.074 99.2217 122.138 99.2217 122.218V123.562C99.2217 123.642 99.1897 123.754 99.1417 123.834L98.2457 125.194C98.1977 125.274 98.1017 125.322 98.0217 125.322ZM111.229 123.754H104.445C104.365 123.754 104.301 123.69 104.301 123.61V122.282C104.301 117.946 110.061 118.49 110.061 115.658C110.077 114.426 109.373 113.53 107.901 113.546C106.509 113.546 105.709 114.474 105.629 116.218C105.629 116.298 105.565 116.362 105.485 116.362H104.413C104.333 116.362 104.269 116.298 104.269 116.218C104.317 113.754 105.581 112.378 107.917 112.362C110.189 112.362 111.421 113.61 111.453 115.626C111.453 119.626 105.693 119.146 105.693 122.058V122.538H111.229C111.309 122.538 111.373 122.602 111.373 122.682V123.61C111.373 123.69 111.309 123.754 111.229 123.754ZM121.133 118.17C121.133 121.85 119.517 123.962 117.085 123.962C114.669 123.962 113.069 121.834 113.069 118.17C113.069 114.41 114.653 112.346 117.101 112.346C119.533 112.346 121.133 114.394 121.133 118.17ZM114.605 118.17C114.605 121.178 115.549 122.714 117.101 122.714C118.653 122.714 119.581 121.194 119.581 118.17C119.581 115.146 118.653 113.594 117.085 113.594C115.517 113.594 114.605 115.13 114.605 118.17ZM124.327 116.25C124.343 117.85 125.095 118.874 126.551 118.874C128.007 118.874 128.887 117.93 128.887 116.314C128.887 114.73 128.055 113.53 126.615 113.53C125.175 113.53 124.327 114.554 124.327 116.25ZM130.535 118.09C130.535 121.834 128.935 123.962 126.407 123.962C124.503 123.962 123.415 123.002 123.191 121.21C123.175 121.13 123.239 121.066 123.319 121.066H124.503C124.583 121.066 124.647 121.13 124.663 121.21C124.791 122.202 125.399 122.81 126.519 122.81C128.103 122.81 128.983 121.29 128.999 118.698C128.487 119.562 127.527 120.042 126.263 120.042C124.183 120.042 122.791 118.666 122.791 116.426C122.791 114.074 124.295 112.346 126.551 112.346C129.015 112.346 130.535 114.17 130.535 118.09ZM132.707 125.994H131.827C131.763 125.994 131.715 125.93 131.747 125.866C132.691 123.722 133.235 121.418 133.235 118.954C133.235 116.49 132.675 114.25 131.763 112.202C131.731 112.138 131.779 112.074 131.843 112.074H132.723C132.803 112.074 132.899 112.122 132.931 112.202C133.923 114.09 134.579 116.314 134.579 118.954C134.579 121.61 133.955 123.77 132.915 125.866C132.883 125.946 132.787 125.994 132.707 125.994ZM43.1694 139.042H45.4094L45.9534 135.202H43.7134L43.1694 139.042ZM46.0974 142.754H45.0254C44.9454 142.754 44.8974 142.69 44.8974 142.61L45.2494 140.194H43.0094L42.6574 142.61C42.6574 142.69 42.5774 142.754 42.4974 142.754H41.4254C41.3454 142.754 41.2974 142.69 41.2974 142.61L41.6494 140.194H39.3934C39.3134 140.194 39.2654 140.13 39.2654 140.05L39.4254 139.186C39.4254 139.106 39.5054 139.042 39.5854 139.042H41.8094L42.3534 135.202H40.1294C40.0494 135.202 40.0014 135.138 40.0014 135.058L40.1294 134.194C40.1294 134.114 40.2094 134.05 40.2894 134.05H42.5294L42.8654 131.698C42.8654 131.618 42.9454 131.554 43.0254 131.554H44.0974C44.1774 131.554 44.2254 131.618 44.2254 131.698L43.8894 134.05H46.1294L46.4654 131.698C46.4654 131.618 46.5454 131.554 46.6254 131.554H47.6974C47.7774 131.554 47.8254 131.618 47.8254 131.698L47.4894 134.05H49.7134C49.7934 134.05 49.8414 134.114 49.8414 134.194L49.7134 135.058C49.7134 135.138 49.6334 135.202 49.5534 135.202H47.3134L46.7694 139.042H49.0094C49.0894 139.042 49.1374 139.106 49.1374 139.186L48.9934 140.05C48.9934 140.13 48.9134 140.194 48.8334 140.194H46.6094L46.2574 142.61C46.2574 142.69 46.1774 142.754 46.0974 142.754ZM52.8157 142.754H51.5677C51.4877 142.754 51.4237 142.69 51.4237 142.61L51.4877 137.154L51.4237 131.698C51.4237 131.618 51.4877 131.554 51.5677 131.554H58.1437C58.2237 131.554 58.2877 131.618 58.2877 131.698V132.61C58.2877 132.69 58.2237 132.754 58.1437 132.754H52.9597L52.8957 136.674H57.8717C57.9517 136.674 58.0157 136.738 58.0157 136.818V137.73C58.0157 137.81 57.9517 137.874 57.8717 137.874H52.8957L52.9597 142.61C52.9597 142.69 52.8957 142.754 52.8157 142.754ZM66.2435 132.898C64.7715 135.826 63.5715 139.042 63.0275 142.61C63.0275 142.69 62.9475 142.754 62.8675 142.754H61.5715C61.4915 142.754 61.4435 142.69 61.4595 142.61C62.0675 139.09 63.1395 135.618 64.7075 132.77H59.6995C59.6195 132.77 59.5555 132.706 59.5555 132.626V131.698C59.5555 131.618 59.6195 131.554 59.6995 131.554H66.1635C66.2435 131.554 66.3075 131.618 66.3075 131.698V132.626C66.3075 132.706 66.2755 132.818 66.2435 132.898ZM76.5681 139.426C76.5681 141.81 74.6641 142.754 72.4241 142.754H68.1521C68.0721 142.754 68.0081 142.69 68.0081 142.61L68.0721 136.994L68.0081 131.698C68.0081 131.618 68.0721 131.554 68.1521 131.554H72.4081C74.6641 131.554 76.2321 132.466 76.2321 134.242C76.2321 135.666 75.4961 136.434 74.1521 136.754C75.8321 137.154 76.5521 138.13 76.5681 139.426ZM69.5441 132.69L69.4801 136.274H72.3921C73.8321 136.274 74.7441 135.762 74.7441 134.514C74.7441 133.266 73.7841 132.69 72.3921 132.69H69.5441ZM69.4801 137.41L69.5441 141.602H72.3921C73.9601 141.602 75.0641 141.042 75.0641 139.442C75.0641 137.97 73.8001 137.41 72.3921 137.41H69.4801ZM85.8545 139.426C85.8545 141.554 84.2385 142.914 81.9345 142.914C79.6465 142.914 78.3665 141.698 78.2225 139.378C78.2065 139.298 78.2705 139.234 78.3505 139.234H79.5025C79.5825 139.234 79.6465 139.298 79.6465 139.378C79.7265 140.914 80.4625 141.81 81.9665 141.794C83.5185 141.794 84.3185 140.866 84.3345 139.458C84.3505 138.034 83.4545 137.314 81.6625 137.314H81.1505C81.0705 137.314 81.0065 137.25 81.0065 137.17V136.386C81.0065 136.306 81.0705 136.242 81.1505 136.242H81.6625C83.3105 136.242 84.1105 135.522 84.1105 134.402C84.1105 133.218 83.2465 132.514 82.0785 132.514C80.6545 132.514 79.9025 133.266 79.7905 134.77C79.7905 134.85 79.7265 134.914 79.6465 134.914H78.5105C78.4305 134.914 78.3665 134.85 78.3665 134.77C78.4945 132.562 79.9505 131.394 82.1425 131.394C84.1105 131.394 85.5825 132.482 85.5825 134.258C85.5825 135.634 84.7345 136.37 83.6465 136.706C85.0225 137.01 85.8545 138.002 85.8545 139.426ZM91.5236 142.754H87.9556C87.8756 142.754 87.8116 142.69 87.8116 142.61L87.8756 137.01L87.8116 131.698C87.8116 131.618 87.8756 131.554 87.9556 131.554H91.4916C94.7076 131.554 97.1556 133.49 97.1556 137.154C97.1556 140.978 94.5316 142.754 91.5236 142.754ZM89.2996 136.978C89.2996 138.018 89.3476 141.538 89.3476 141.554H91.6516C93.6356 141.554 95.6196 140.258 95.6196 137.154C95.6196 134.194 93.8116 132.754 91.5876 132.754H89.3476C89.3476 132.77 89.2996 135.97 89.2996 136.978ZM102.392 142.754H101.16C101.08 142.754 101.016 142.69 101.016 142.61L101.048 137.618L101.032 133.314C100.408 133.89 99.6084 134.29 98.7764 134.578C98.6964 134.61 98.6324 134.562 98.6324 134.482V133.522C98.6324 133.442 98.6804 133.362 98.7604 133.33C99.7044 132.978 100.504 132.37 101.032 131.666C101.08 131.602 101.176 131.554 101.256 131.554H102.392C102.472 131.554 102.536 131.618 102.536 131.698L102.504 137.314L102.536 142.61C102.536 142.69 102.472 142.754 102.392 142.754Z" fill="#0F0E0F"/>
</svg>
