<svg width="143" height="148" viewBox="0 0 143 148" fill="none" xmlns="http://www.w3.org/2000/svg">
<ellipse cx="71.8917" cy="54.3768" rx="55.1498" ry="54.3768" fill="white"/>
<path d="M9.65294 115.882C9.65294 114.458 8.72494 113.738 7.14094 113.738H4.45294L4.40494 118.01H7.15694C8.64494 118.01 9.65294 117.386 9.65294 115.882ZM9.58894 123.626L8.53294 121.818L6.82094 119.178H4.42094L4.46894 123.61C4.46894 123.69 4.40494 123.754 4.32494 123.754H3.07694C2.99694 123.754 2.93294 123.69 2.93294 123.61L2.99694 117.994L2.93294 112.698C2.93294 112.618 2.99694 112.554 3.07694 112.554H6.99694C9.55694 112.554 11.1089 113.658 11.1089 115.85C11.1089 117.642 10.0689 118.714 8.38894 119.05L11.3169 123.626C11.3489 123.69 11.3169 123.754 11.2529 123.754H9.81294C9.73294 123.754 9.63694 123.706 9.58894 123.626ZM22.7277 118.074C22.7597 121.898 21.0157 123.962 17.7837 123.962C14.7757 123.962 12.6477 121.674 12.6477 118.154C12.6477 114.586 14.7597 112.346 17.7517 112.346C20.2477 112.346 21.9277 113.642 22.4557 115.978C22.4717 116.058 22.4237 116.122 22.3437 116.122H21.1117C21.0317 116.122 20.9517 116.058 20.9357 115.978C20.5517 114.394 19.4157 113.562 17.7517 113.562C15.5917 113.562 14.1837 115.29 14.1837 118.17C14.1837 120.986 15.6237 122.746 17.7997 122.746C19.9597 122.746 21.1437 121.338 21.1597 119.114H17.7997C17.7197 119.114 17.6557 119.05 17.6557 118.97V118.074C17.6557 117.994 17.7197 117.93 17.7997 117.93H22.5837C22.6637 117.93 22.7277 117.994 22.7277 118.074ZM33.1711 120.426C33.1711 122.81 31.2671 123.754 29.0271 123.754H24.7551C24.6751 123.754 24.6111 123.69 24.6111 123.61L24.6751 117.994L24.6111 112.698C24.6111 112.618 24.6751 112.554 24.7551 112.554H29.0111C31.2671 112.554 32.8351 113.466 32.8351 115.242C32.8351 116.666 32.0991 117.434 30.7551 117.754C32.4351 118.154 33.1551 119.13 33.1711 120.426ZM26.1471 113.69L26.0831 117.274H28.9951C30.4351 117.274 31.3471 116.762 31.3471 115.514C31.3471 114.266 30.3871 113.69 28.9951 113.69H26.1471ZM26.0831 118.41L26.1471 122.602H28.9951C30.5631 122.602 31.6671 122.042 31.6671 120.442C31.6671 118.97 30.4031 118.41 28.9951 118.41H26.0831ZM41.0638 125.994H40.1838C40.1038 125.994 40.0078 125.946 39.9758 125.866C38.9358 123.77 38.3118 121.61 38.3118 118.954C38.3118 116.314 38.9678 114.09 39.9598 112.202C39.9918 112.122 40.0878 112.074 40.1678 112.074H41.0478C41.1118 112.074 41.1598 112.138 41.1278 112.202C40.2158 114.25 39.6558 116.49 39.6558 118.954C39.6558 121.418 40.1998 123.722 41.1438 125.866C41.1758 125.93 41.1278 125.994 41.0638 125.994ZM49.4647 123.754H42.6807C42.6007 123.754 42.5367 123.69 42.5367 123.61V122.282C42.5367 117.946 48.2967 118.49 48.2967 115.658C48.3127 114.426 47.6087 113.53 46.1367 113.546C44.7447 113.546 43.9447 114.474 43.8647 116.218C43.8647 116.298 43.8007 116.362 43.7207 116.362H42.6487C42.5687 116.362 42.5047 116.298 42.5047 116.218C42.5527 113.754 43.8167 112.378 46.1527 112.362C48.4247 112.362 49.6567 113.61 49.6887 115.626C49.6887 119.626 43.9287 119.146 43.9287 122.058V122.538H49.4647C49.5447 122.538 49.6087 122.602 49.6087 122.682V123.61C49.6087 123.69 49.5447 123.754 49.4647 123.754ZM58.8109 119.69C58.8109 122.314 57.2269 123.962 54.8909 123.962C52.6349 123.962 51.4509 122.714 51.2429 120.81C51.2269 120.73 51.2909 120.666 51.3709 120.666H52.5709C52.6509 120.666 52.7149 120.73 52.7149 120.81C52.8109 122.026 53.5469 122.842 54.8909 122.842C56.3309 122.842 57.2429 121.706 57.2429 119.786C57.2429 117.914 56.4269 116.906 54.9869 116.906C53.8349 116.906 53.1149 117.498 52.8429 118.506C52.8269 118.586 52.7469 118.65 52.6669 118.65H51.6269C51.5469 118.65 51.4829 118.586 51.4989 118.506L51.8669 112.698C51.8829 112.618 51.9469 112.554 52.0269 112.554H57.9309C58.0109 112.554 58.0749 112.618 58.0749 112.698V113.626C58.0749 113.706 58.0109 113.77 57.9309 113.77H53.1629L52.9229 116.826C53.4989 116.106 54.2989 115.754 55.3709 115.754C57.3389 115.754 58.8109 117.258 58.8109 119.69ZM67.9859 119.69C67.9859 122.314 66.4019 123.962 64.0659 123.962C61.8099 123.962 60.6259 122.714 60.4179 120.81C60.4019 120.73 60.4659 120.666 60.5459 120.666H61.7459C61.8259 120.666 61.8899 120.73 61.8899 120.81C61.9859 122.026 62.7219 122.842 64.0659 122.842C65.5059 122.842 66.4179 121.706 66.4179 119.786C66.4179 117.914 65.6019 116.906 64.1619 116.906C63.0099 116.906 62.2899 117.498 62.0179 118.506C62.0019 118.586 61.9219 118.65 61.8419 118.65H60.8019C60.7219 118.65 60.6579 118.586 60.6739 118.506L61.0419 112.698C61.0579 112.618 61.1219 112.554 61.2019 112.554H67.1059C67.1859 112.554 67.2499 112.618 67.2499 112.698V113.626C67.2499 113.706 67.1859 113.77 67.1059 113.77H62.3379L62.0979 116.826C62.6739 116.106 63.4739 115.754 64.5459 115.754C66.5139 115.754 67.9859 117.258 67.9859 119.69ZM69.9137 125.322H69.3697C69.3057 125.322 69.2417 125.258 69.2577 125.178L69.6577 123.722V122.218C69.6577 122.138 69.7217 122.074 69.8017 122.074H70.9697C71.0497 122.074 71.1137 122.138 71.1137 122.218V123.562C71.1137 123.642 71.0817 123.754 71.0337 123.834L70.1377 125.194C70.0897 125.274 69.9937 125.322 69.9137 125.322ZM79.7609 123.754H78.5289C78.4489 123.754 78.3849 123.69 78.3849 123.61L78.4169 118.618L78.4009 114.314C77.7769 114.89 76.9769 115.29 76.1449 115.578C76.0649 115.61 76.0009 115.562 76.0009 115.482V114.522C76.0009 114.442 76.0489 114.362 76.1289 114.33C77.0729 113.978 77.8729 113.37 78.4009 112.666C78.4489 112.602 78.5449 112.554 78.6249 112.554H79.7609C79.8409 112.554 79.9049 112.618 79.9049 112.698L79.8729 118.314L79.9049 123.61C79.9049 123.69 79.8409 123.754 79.7609 123.754ZM89.8109 119.69C89.8109 122.314 88.2269 123.962 85.8909 123.962C83.6349 123.962 82.4509 122.714 82.2429 120.81C82.2269 120.73 82.2909 120.666 82.3709 120.666H83.5709C83.6509 120.666 83.7149 120.73 83.7149 120.81C83.8109 122.026 84.5469 122.842 85.8909 122.842C87.3309 122.842 88.2429 121.706 88.2429 119.786C88.2429 117.914 87.4269 116.906 85.9869 116.906C84.8349 116.906 84.1149 117.498 83.8429 118.506C83.8269 118.586 83.7469 118.65 83.6669 118.65H82.6269C82.5469 118.65 82.4829 118.586 82.4989 118.506L82.8669 112.698C82.8829 112.618 82.9469 112.554 83.0269 112.554H88.9309C89.0109 112.554 89.0749 112.618 89.0749 112.698V113.626C89.0749 113.706 89.0109 113.77 88.9309 113.77H84.1629L83.9229 116.826C84.4989 116.106 85.2989 115.754 86.3709 115.754C88.3389 115.754 89.8109 117.258 89.8109 119.69ZM98.9859 119.69C98.9859 122.314 97.4019 123.962 95.0659 123.962C92.8099 123.962 91.6259 122.714 91.4179 120.81C91.4019 120.73 91.4659 120.666 91.5459 120.666H92.7459C92.8259 120.666 92.8899 120.73 92.8899 120.81C92.9859 122.026 93.7219 122.842 95.0659 122.842C96.5059 122.842 97.4179 121.706 97.4179 119.786C97.4179 117.914 96.6019 116.906 95.1619 116.906C94.0099 116.906 93.2899 117.498 93.0179 118.506C93.0019 118.586 92.9219 118.65 92.8419 118.65H91.8019C91.7219 118.65 91.6579 118.586 91.6739 118.506L92.0419 112.698C92.0579 112.618 92.1219 112.554 92.2019 112.554H98.1059C98.1859 112.554 98.2499 112.618 98.2499 112.698V113.626C98.2499 113.706 98.1859 113.77 98.1059 113.77H93.3379L93.0979 116.826C93.6739 116.106 94.4739 115.754 95.5459 115.754C97.5139 115.754 98.9859 117.258 98.9859 119.69ZM100.914 125.322H100.37C100.306 125.322 100.242 125.258 100.258 125.178L100.658 123.722V122.218C100.658 122.138 100.722 122.074 100.802 122.074H101.97C102.05 122.074 102.114 122.138 102.114 122.218V123.562C102.114 123.642 102.082 123.754 102.034 123.834L101.138 125.194C101.09 125.274 100.994 125.322 100.914 125.322ZM114.121 123.754H107.337C107.257 123.754 107.193 123.69 107.193 123.61V122.282C107.193 117.946 112.953 118.49 112.953 115.658C112.969 114.426 112.265 113.53 110.793 113.546C109.401 113.546 108.601 114.474 108.521 116.218C108.521 116.298 108.457 116.362 108.377 116.362H107.305C107.225 116.362 107.161 116.298 107.161 116.218C107.209 113.754 108.473 112.378 110.809 112.362C113.081 112.362 114.313 113.61 114.345 115.626C114.345 119.626 108.585 119.146 108.585 122.058V122.538H114.121C114.201 122.538 114.265 122.602 114.265 122.682V123.61C114.265 123.69 114.201 123.754 114.121 123.754ZM123.467 119.69C123.467 122.314 121.883 123.962 119.547 123.962C117.291 123.962 116.107 122.714 115.899 120.81C115.883 120.73 115.947 120.666 116.027 120.666H117.227C117.307 120.666 117.371 120.73 117.371 120.81C117.467 122.026 118.203 122.842 119.547 122.842C120.987 122.842 121.899 121.706 121.899 119.786C121.899 117.914 121.083 116.906 119.643 116.906C118.491 116.906 117.771 117.498 117.499 118.506C117.483 118.586 117.403 118.65 117.323 118.65H116.283C116.203 118.65 116.139 118.586 116.155 118.506L116.523 112.698C116.539 112.618 116.603 112.554 116.683 112.554H122.587C122.667 112.554 122.731 112.618 122.731 112.698V113.626C122.731 113.706 122.667 113.77 122.587 113.77H117.819L117.579 116.826C118.155 116.106 118.955 115.754 120.027 115.754C121.995 115.754 123.467 117.258 123.467 119.69ZM132.642 119.69C132.642 122.314 131.058 123.962 128.722 123.962C126.466 123.962 125.282 122.714 125.074 120.81C125.058 120.73 125.122 120.666 125.202 120.666H126.402C126.482 120.666 126.546 120.73 126.546 120.81C126.642 122.026 127.378 122.842 128.722 122.842C130.162 122.842 131.074 121.706 131.074 119.786C131.074 117.914 130.258 116.906 128.818 116.906C127.666 116.906 126.946 117.498 126.674 118.506C126.658 118.586 126.578 118.65 126.498 118.65H125.458C125.378 118.65 125.314 118.586 125.33 118.506L125.698 112.698C125.714 112.618 125.778 112.554 125.858 112.554H131.762C131.842 112.554 131.906 112.618 131.906 112.698V113.626C131.906 113.706 131.842 113.77 131.762 113.77H126.994L126.754 116.826C127.33 116.106 128.13 115.754 129.202 115.754C131.17 115.754 132.642 117.258 132.642 119.69ZM134.756 125.994H133.876C133.812 125.994 133.764 125.93 133.796 125.866C134.74 123.722 135.284 121.418 135.284 118.954C135.284 116.49 134.724 114.25 133.812 112.202C133.78 112.138 133.828 112.074 133.892 112.074H134.772C134.852 112.074 134.948 112.122 134.98 112.202C135.972 114.09 136.628 116.314 136.628 118.954C136.628 121.61 136.004 123.77 134.964 125.866C134.932 125.946 134.836 125.994 134.756 125.994ZM44.0848 139.042H46.3248L46.8688 135.202H44.6288L44.0848 139.042ZM47.0128 142.754H45.9408C45.8608 142.754 45.8128 142.69 45.8128 142.61L46.1648 140.194H43.9248L43.5728 142.61C43.5728 142.69 43.4928 142.754 43.4128 142.754H42.3408C42.2608 142.754 42.2128 142.69 42.2128 142.61L42.5648 140.194H40.3088C40.2288 140.194 40.1808 140.13 40.1808 140.05L40.3408 139.186C40.3408 139.106 40.4208 139.042 40.5008 139.042H42.7248L43.2688 135.202H41.0448C40.9648 135.202 40.9168 135.138 40.9168 135.058L41.0448 134.194C41.0448 134.114 41.1248 134.05 41.2048 134.05H43.4448L43.7808 131.698C43.7808 131.618 43.8608 131.554 43.9408 131.554H45.0128C45.0928 131.554 45.1408 131.618 45.1408 131.698L44.8048 134.05H47.0448L47.3808 131.698C47.3808 131.618 47.4608 131.554 47.5408 131.554H48.6128C48.6928 131.554 48.7408 131.618 48.7408 131.698L48.4048 134.05H50.6288C50.7088 134.05 50.7568 134.114 50.7568 134.194L50.6288 135.058C50.6288 135.138 50.5488 135.202 50.4688 135.202H48.2288L47.6848 139.042H49.9248C50.0048 139.042 50.0528 139.106 50.0528 139.186L49.9088 140.05C49.9088 140.13 49.8288 140.194 49.7488 140.194H47.5248L47.1728 142.61C47.1728 142.69 47.0928 142.754 47.0128 142.754ZM53.7312 142.754H52.4832C52.4032 142.754 52.3392 142.69 52.3392 142.61L52.4032 137.154L52.3392 131.698C52.3392 131.618 52.4032 131.554 52.4832 131.554H59.0592C59.1392 131.554 59.2032 131.618 59.2032 131.698V132.61C59.2032 132.69 59.1392 132.754 59.0592 132.754H53.8752L53.8112 136.674H58.7872C58.8672 136.674 58.9312 136.738 58.9312 136.818V137.73C58.9312 137.81 58.8672 137.874 58.7872 137.874H53.8112L53.8752 142.61C53.8752 142.69 53.8112 142.754 53.7312 142.754ZM62.3749 142.754H61.1269C61.0469 142.754 60.9829 142.69 60.9829 142.61L61.0469 137.154L60.9829 131.698C60.9829 131.618 61.0469 131.554 61.1269 131.554H67.7029C67.7829 131.554 67.8469 131.618 67.8469 131.698V132.61C67.8469 132.69 67.7829 132.754 67.7029 132.754H62.5189L62.4549 136.674H67.4309C67.5109 136.674 67.5749 136.738 67.5749 136.818V137.73C67.5749 137.81 67.5109 137.874 67.4309 137.874H62.4549L62.5189 142.61C62.5189 142.69 62.4549 142.754 62.3749 142.754ZM71.0187 142.754H69.7707C69.6907 142.754 69.6267 142.69 69.6267 142.61L69.6907 137.154L69.6267 131.698C69.6267 131.618 69.6907 131.554 69.7707 131.554H76.3467C76.4267 131.554 76.4907 131.618 76.4907 131.698V132.61C76.4907 132.69 76.4267 132.754 76.3467 132.754H71.1627L71.0987 136.674H76.0747C76.1547 136.674 76.2187 136.738 76.2187 136.818V137.73C76.2187 137.81 76.1547 137.874 76.0747 137.874H71.0987L71.1627 142.61C71.1627 142.69 71.0987 142.754 71.0187 142.754ZM79.6624 142.754H78.4144C78.3344 142.754 78.2704 142.69 78.2704 142.61L78.3344 137.154L78.2704 131.698C78.2704 131.618 78.3344 131.554 78.4144 131.554H84.9904C85.0704 131.554 85.1344 131.618 85.1344 131.698V132.61C85.1344 132.69 85.0704 132.754 84.9904 132.754H79.8064L79.7424 136.674H84.7184C84.7984 136.674 84.8624 136.738 84.8624 136.818V137.73C84.8624 137.81 84.7984 137.874 84.7184 137.874H79.7424L79.8064 142.61C79.8064 142.69 79.7424 142.754 79.6624 142.754ZM88.3062 142.754H87.0582C86.9782 142.754 86.9142 142.69 86.9142 142.61L86.9782 137.154L86.9142 131.698C86.9142 131.618 86.9782 131.554 87.0582 131.554H93.6342C93.7142 131.554 93.7782 131.618 93.7782 131.698V132.61C93.7782 132.69 93.7142 132.754 93.6342 132.754H88.4502L88.3862 136.674H93.3622C93.4422 136.674 93.5062 136.738 93.5062 136.818V137.73C93.5062 137.81 93.4422 137.874 93.3622 137.874H88.3862L88.4502 142.61C88.4502 142.69 88.3862 142.754 88.3062 142.754ZM96.9499 142.754H95.7019C95.6219 142.754 95.5579 142.69 95.5579 142.61L95.6219 137.154L95.5579 131.698C95.5579 131.618 95.6219 131.554 95.7019 131.554H102.278C102.358 131.554 102.422 131.618 102.422 131.698V132.61C102.422 132.69 102.358 132.754 102.278 132.754H97.0939L97.0299 136.674H102.006C102.086 136.674 102.15 136.738 102.15 136.818V137.73C102.15 137.81 102.086 137.874 102.006 137.874H97.0299L97.0939 142.61C97.0939 142.69 97.0299 142.754 96.9499 142.754Z" fill="#0F0E0F"/>
</svg>
